Coordinates
version=1
nRows=20
nColumns=30
inDegrees=yes

Units are S.I. units (second, meters, Newtons, ...)
Angles are in degrees.

endheader
time	floatyaw	floatroll	floatpitch	floatx	floaty	floatz	pro_sup_l	deviation_l	flexion_l	cmc_flexion_l	cmc_abduction_l	mp_flexion_l	ip_flexion_l	2mcp_flexion_l	2mcp_abduction_l	2pm_flexion_l	2md_flexion_l	3mcp_flexion_l	3mcp_abduction_l	3pm_flexion_l	3md_flexion_l	4mcp_flexion_l	4mcp_abduction_l	4pm_flexion_l	4md_flexion_l	5mcp_flexion_l	5mcp_abduction_l	5pm_flexion_l	5md_flexion_l
-0.995000	-160.147433	-5.066637	-73.570646	0.078263	-0.180587	-0.020737	99.252410	0.435802	-1.720952	15.627339	0.661142	-25.164643	-41.009878	30.943549	6.748933	42.137687	29.447223	24.779264	4.002194	44.052090	29.208290	14.623776	-4.423002	51.317189	35.577844	0.856037	-7.578556	61.638341	42.569235
-0.985000	-160.147433	-5.066637	-73.570646	0.078265	-0.180584	-0.020729	99.265012	0.443890	-1.727411	15.628858	0.667517	-25.158442	-41.015971	30.957190	6.759644	42.131034	29.440986	24.787834	4.002778	44.075566	29.217504	14.641806	-4.420435	51.307639	35.570127	0.886258	-7.585658	61.643438	42.556314
-0.975000	-160.147433	-5.066637	-73.570646	0.078265	-0.180584	-0.020723	99.266533	0.444599	-1.732810	15.623955	0.681778	-25.155359	-41.021693	30.971855	6.770927	42.127048	29.435884	24.799916	4.002672	44.099673	29.224847	14.654425	-4.416609	51.299556	35.563924	0.910889	-7.591890	61.652430	42.544100
-0.965000	-160.147433	-5.066637	-73.570646	0.078265	-0.180585	-0.020721	99.257519	0.438621	-1.734831	15.609759	0.694399	-25.154664	-41.024361	30.986317	6.779569	42.126013	29.432858	24.812187	4.001327	44.119459	29.228249	14.658373	-4.411414	51.293843	35.559403	0.924043	-7.596061	61.664426	42.534932
-0.955000	-160.147433	-5.066637	-73.570646	0.078265	-0.180585	-0.020722	99.242191	0.428648	-1.732195	15.587012	0.696019	-25.155305	-41.022178	30.999037	6.783342	42.128179	29.432337	24.822189	3.998439	44.131587	29.226491	14.653312	-4.405241	51.290472	35.556075	0.924530	-7.597784	61.677016	42.529663
-0.945000	-160.147433	-5.066637	-73.570646	0.078265	-0.180583	-0.020725	99.225036	0.417655	-1.724916	15.559224	0.683889	-25.156409	-41.013923	31.008231	6.781911	42.134163	29.434968	24.828514	3.994187	44.135687	29.220259	14.641186	-4.399005	51.289372	35.553544	0.915403	-7.597899	61.687605	42.528100
-0.935000	-160.147433	-5.066637	-73.570646	0.078265	-0.180580	-0.020729	99.207627	0.407254	-1.714342	15.530808	0.664444	-25.157627	-40.998991	31.012463	6.776661	42.145234	29.442184	24.830571	3.989269	44.134670	29.212448	14.624881	-4.393912	51.291284	35.552180	0.901562	-7.598141	61.694985	42.529858
-0.925000	-160.147433	-5.066637	-73.570646	0.078264	-0.180575	-0.020732	99.188022	0.397254	-1.702836	15.505293	0.649492	-25.159216	-40.978011	31.011628	6.769668	42.162784	29.455648	24.828501	3.984672	44.133424	29.207034	14.607128	-4.391039	51.297627	35.553018	0.886996	-7.599980	61.699880	42.534800
-0.915000	-160.147433	-5.066637	-73.570646	0.078262	-0.180573	-0.020733	99.163136	0.386670	-1.693056	15.484488	0.648366	-25.161848	-40.953566	31.007506	6.762584	42.187103	29.475807	24.823327	3.981287	44.136426	29.207030	14.590144	-4.390874	51.309350	35.556932	0.873338	-7.603325	61.704008	42.542716
-0.905000	-160.147433	-5.066637	-73.570646	0.078259	-0.180575	-0.020733	99.132258	0.375353	-1.687009	15.468806	0.661633	-25.166244	-40.930273	31.003224	6.756256	42.216226	29.500683	24.816822	3.979550	44.145768	29.212966	14.575809	-4.393086	51.325755	35.563739	0.860375	-7.606132	61.708513	42.552662
-0.895000	-160.147433	-5.066637	-73.570646	0.078256	-0.180579	-0.020731	99.099106	0.365012	-1.685274	15.458147	0.680659	-25.172860	-40.913841	31.001797	6.751220	42.245427	29.525714	24.810637	3.979307	44.160841	29.222991	14.565762	-4.396659	51.344278	35.571961	0.847707	-7.605419	61.713042	42.562620
-0.885000	-160.147433	-5.066637	-73.570646	0.078255	-0.180585	-0.020726	99.070886	0.358819	-1.686708	15.452425	0.692866	-25.181777	-40.909365	31.004758	6.748399	42.267639	29.544686	24.805063	3.980031	44.179411	29.234242	14.561008	-4.400394	51.361405	35.579377	0.836034	-7.599201	61.716133	42.569900
-0.875000	-160.147433	-5.066637	-73.570646	0.078255	-0.180588	-0.020718	99.054786	0.359749	-1.688804	15.451249	0.688811	-25.192883	-40.919571	31.011897	6.749145	42.275095	29.551451	24.798542	3.981259	44.198760	29.244190	14.561244	-4.403495	51.374083	35.583994	0.827005	-7.588095	61.716598	42.572228
-0.865000	-160.147433	-5.066637	-73.570646	0.078259	-0.180586	-0.020707	99.053906	0.368589	-1.688666	15.453124	0.666952	-25.206207	-40.943724	31.022079	6.754411	42.262276	29.542083	24.788666	3.982988	44.216071	29.251094	14.564493	-4.405917	51.380959	35.584964	0.821801	-7.575434	61.714875	42.569040
-0.855000	-160.147433	-5.066637	-73.570646	0.078264	-0.180578	-0.020696	99.064917	0.382824	-1.684205	15.455038	0.634283	-25.222130	-40.977595	31.034211	6.763734	42.229120	29.516889	24.774068	3.985666	44.228589	29.253928	14.567435	-4.408260	51.383038	35.583104	0.819615	-7.565632	61.713308	42.562213
-0.845000	-160.147433	-5.066637	-73.570646	0.078271	-0.180565	-0.020685	99.078840	0.397156	-1.674993	15.453013	0.603312	-25.241209	-41.014479	31.047480	6.774946	42.182453	29.481203	24.755779	3.989719	44.234362	29.252528	14.566420	-4.411274	51.383516	35.580752	0.817343	-7.561746	61.714994	42.555605
-0.835000	-160.147433	-5.066637	-73.570646	0.078278	-0.180552	-0.020677	99.084792	0.405574	-1.662394	15.443468	0.586739	-25.263457	-41.046879	31.060982	6.784993	42.134071	29.444056	24.737100	3.994942	44.233286	29.247931	14.558862	-4.415285	51.386528	35.580822	0.810941	-7.563777	61.721834	42.553411
-0.825000	-160.147433	-5.066637	-73.570646	0.078283	-0.180542	-0.020673	99.075010	0.404020	-1.649014	15.424655	0.591606	-25.287274	-41.068313	31.073578	6.791390	42.095824	29.414815	24.722223	4.000274	44.227391	29.242259	14.544533	-4.419868	51.395081	35.585304	0.797785	-7.568786	61.733132	42.558126
-0.815000	-160.147433	-5.066637	-73.570646	0.078286	-0.180538	-0.020673	99.048646	0.392299	-1.637719	15.397448	0.615311	-25.308821	-41.074807	31.084504	6.793372	42.074235	29.399276	24.714533	4.004203	44.219737	29.237760	14.526086	-4.423983	51.409178	35.593978	0.778561	-7.572734	61.745734	42.569289
-0.805000	-160.147433	-5.066637	-73.570646	0.078286	-0.180538	-0.020676	99.012216	0.374188	-1.630573	15.365095	0.646065	-25.322730	-41.065817	31.094188	6.791978	42.067922	29.397429	24.715438	4.005567	44.212616	29.235524	14.508295	-4.426497	51.425423	35.604268	0.757409	-7.572864	61.755683	42.583728
